<?xml version="1.0" encoding="UTF-8" standalone="no"?>
<svg
   xmlns:dc="http://purl.org/dc/elements/1.1/"
   xmlns:cc="http://creativecommons.org/ns#"
   xmlns:rdf="http://www.w3.org/1999/02/22-rdf-syntax-ns#"
   xmlns:svg="http://www.w3.org/2000/svg"
   xmlns="http://www.w3.org/2000/svg"
   id="svg5289"
   version="1.1"
   viewBox="0 0 7.9999413 8.0002947"
   height="8.0002947mm"
   width="7.9999413mm">
  <defs
     id="defs5283">
    <clipPath
       clipPathUnits="userSpaceOnUse"
       id="clipPath4487">
      <path
         d="M 0,0 H 595.276 V 841.89 H 0 Z"
         id="path4485" />
    </clipPath>
  </defs>
  <metadata
     id="metadata5286">
    <rdf:RDF>
      <cc:Work
         rdf:about="">
        <dc:format>image/svg+xml</dc:format>
        <dc:type
           rdf:resource="http://purl.org/dc/dcmitype/StillImage" />
        <dc:title></dc:title>
      </cc:Work>
    </rdf:RDF>
  </metadata>
  <g
     transform="translate(-16.410744,-69.237947)"
     id="layer1">
    <g
       transform="matrix(0.35277777,0,0,-0.35277777,-2.589338,146.894)"
       id="g4481">
      <g
         clip-path="url(#clipPath4487)"
         id="g4483">
        <g
           transform="translate(76.5355,208.7884)"
           id="g4489">
          <path
             id="path4491"
             style="fill:#000000;fill-opacity:1;fill-rule:nonzero;stroke:none"
             d="m 0,0 c 0,-6.262 -5.076,-11.339 -11.339,-11.339 -6.262,0 -11.338,5.077 -11.338,11.339 0,6.262 5.076,11.339 11.338,11.339 C -5.076,11.339 0,6.262 0,0" />
        </g>
        <g
           transform="translate(69.4886,215.4296)"
           id="g4493">
          <path
             id="path4495"
             style="fill:#ffffff;fill-opacity:1;fill-rule:nonzero;stroke:none"
             d="m 0,0 c 0,0 -0.003,1.948 -3.39,2.244 -0.027,0.308 -0.284,0.553 -0.599,0.553 h -0.605 c -0.315,0 -0.573,-0.245 -0.6,-0.553 C -8.581,1.948 -8.583,0 -8.583,0 v -10.129 l 0.849,-1.351 v -4.418 h 0.837 v 3.087 l 1.942,-3.087 h 0.663 0.664 l 1.942,3.087 v -3.087 h 0.836 v 4.418 L 0,-10.129 Z" />
        </g>
        <g
           transform="translate(69.9075,215.1945)"
           id="g4497">
          <path
             id="path4499"
             style="fill:none;stroke:#000000;stroke-width:0.5;stroke-linecap:butt;stroke-linejoin:miter;stroke-miterlimit:10;stroke-dasharray:none;stroke-opacity:1"
             d="m 0,0 c 0,-0.797 -2.109,-1.443 -4.711,-1.443 -2.601,0 -4.71,0.646 -4.71,1.443 M 0,-4.46 c 0,-0.797 -2.109,-1.443 -4.711,-1.443 -2.601,0 -4.71,0.646 -4.71,1.443 M 0,-8.92 c 0,-0.797 -2.109,-1.443 -4.711,-1.443 -2.601,0 -4.71,0.646 -4.71,1.443" />
        </g>
      </g>
    </g>
  </g>
</svg>
