<?xml version="1.0" encoding="UTF-8" standalone="no"?>
<svg
   xmlns:dc="http://purl.org/dc/elements/1.1/"
   xmlns:cc="http://creativecommons.org/ns#"
   xmlns:rdf="http://www.w3.org/1999/02/22-rdf-syntax-ns#"
   xmlns:svg="http://www.w3.org/2000/svg"
   xmlns="http://www.w3.org/2000/svg"
   xmlns:xlink="http://www.w3.org/1999/xlink"
   id="svg6832"
   version="1.1"
   viewBox="0 0 8.0002947 7.9999413"
   height="7.9999413mm"
   width="8.0002947mm">
  <defs
     id="defs6826">
    <clipPath
       id="clipPath5467"
       clipPathUnits="userSpaceOnUse">
      <use
         height="100%"
         width="100%"
         id="use5469"
         xlink:href="#g5463"
         y="0"
         x="0" />
    </clipPath>
    <clipPath
       clipPathUnits="userSpaceOnUse"
       id="clipPath4269">
      <path
         d="M 0,0 H 595.276 V 841.89 H 0 Z"
         id="path4267" />
    </clipPath>
  </defs>
  <metadata
     id="metadata6829">
    <rdf:RDF>
      <cc:Work
         rdf:about="">
        <dc:format>image/svg+xml</dc:format>
        <dc:type
           rdf:resource="http://purl.org/dc/dcmitype/StillImage" />
        <dc:title></dc:title>
      </cc:Work>
    </rdf:RDF>
  </metadata>
  <g
     transform="translate(-27.749855,-50.339314)"
     id="layer1">
    <g
       transform="translate(-75.37777,-74.715393)"
       clip-path="url(#clipPath5467)"
       id="g5465">
      <g
         id="g5463">
        <g
           clip-path="url(#clipPath4269)"
           id="g4265"
           transform="matrix(0.35277777,0,0,-0.35277777,26.877779,311.11055)">
          <g
             transform="translate(227.4803,504.7254)"
             id="g4271">
            <path
               id="path4273"
               style="fill:#000000;fill-opacity:1;fill-rule:nonzero;stroke:none"
               d="m 0,0 c 6.262,0 11.339,5.076 11.339,11.339 0,6.262 -5.077,11.338 -11.339,11.338 -6.262,0 -11.339,-5.076 -11.339,-11.338 C -11.339,5.076 -6.262,0 0,0" />
          </g>
          <g
             transform="translate(227.221,520.3802)"
             id="g4275">
            <path
               id="path4277"
               style="fill:#ffffff;fill-opacity:1;fill-rule:nonzero;stroke:none"
               d="M 0,0 C 0.01,0.006 0.02,0.011 0.03,0.017 0.089,0.049 0.155,0.066 0.222,0.066 H 0.295 C 0.362,0.066 0.429,0.049 0.488,0.017 0.498,0.011 0.508,0.006 0.518,0 0.86,0.61 1.283,1.112 1.778,1.495 1.771,1.518 1.764,1.541 1.757,1.563 1.478,2.419 0.974,3.063 0.259,3.479 -0.64,2.954 -1.061,2.133 -1.259,1.494 -0.764,1.111 -0.341,0.61 0,0" />
          </g>
          <g
             transform="translate(226.5604,519.9242)"
             id="g4279">
            <path
               id="path4281"
               style="fill:#ffffff;fill-opacity:1;fill-rule:nonzero;stroke:none"
               d="M 0,0 C -0.383,0.711 -0.877,1.241 -1.473,1.58 -2.054,1.037 -2.441,0.281 -2.624,-0.671 -2.177,-1.136 -1.773,-1.616 -1.421,-2.1 -1.119,-1.25 -0.633,-0.53 0,0" />
          </g>
          <g
             transform="translate(229.8206,517.8241)"
             id="g4283">
            <path
               id="path4285"
               style="fill:#ffffff;fill-opacity:1;fill-rule:nonzero;stroke:none"
               d="M 0,0 C 0.352,0.484 0.755,0.963 1.202,1.427 1.018,2.381 0.632,3.138 0.052,3.68 -0.545,3.341 -1.04,2.811 -1.422,2.101 -0.789,1.571 -0.302,0.851 0,0" />
          </g>
          <g
             transform="translate(227.4799,519.6093)"
             id="g4287">
            <path
               id="path4289"
               style="fill:#ffffff;fill-opacity:1;fill-rule:nonzero;stroke:none"
               d="m 0,0 c -0.792,-0.488 -1.35,-1.247 -1.659,-2.259 -0.039,-0.129 -0.075,-0.264 -0.105,-0.401 0.176,-0.297 0.328,-0.588 0.454,-0.869 0.318,0.328 0.691,0.59 1.11,0.783 0.051,0.024 0.109,0.036 0.166,0.036 h 0.068 c 0.057,0 0.115,-0.012 0.166,-0.036 0.419,-0.193 0.792,-0.455 1.11,-0.783 0.126,0.281 0.278,0.572 0.454,0.869 -0.03,0.137 -0.066,0.272 -0.105,0.401 C 1.35,-1.248 0.792,-0.488 0,0" />
          </g>
          <g
             transform="translate(223.5716,515.8674)"
             id="g4291">
            <path
               id="path4293"
               style="fill:#ffffff;fill-opacity:1;fill-rule:nonzero;stroke:none"
               d="m 0,0 c 0.66,-0.445 1.188,-0.985 1.575,-1.609 0.013,0.046 0.027,0.091 0.041,0.136 0.108,0.341 0.249,0.66 0.42,0.949 C 1.865,-0.042 1.27,1.342 -0.365,2.994 -0.498,2.733 -0.646,2.367 -0.734,1.912 -0.826,1.431 -0.837,0.936 -0.766,0.441 -0.499,0.311 -0.242,0.163 0,0" />
          </g>
          <g
             transform="translate(229.7719,514.3948)"
             id="g4295">
            <path
               id="path4297"
               style="fill:#ffffff;fill-opacity:1;fill-rule:nonzero;stroke:none"
               d="m 0,0 c 0.014,-0.045 0.028,-0.091 0.041,-0.137 0.387,0.625 0.915,1.165 1.575,1.61 0.243,0.163 0.5,0.311 0.766,0.441 C 2.454,2.417 2.442,2.92 2.345,3.408 2.256,3.856 2.112,4.212 1.982,4.467 0.347,2.816 -0.249,1.431 -0.42,0.948 -0.249,0.659 -0.108,0.341 0,0" />
          </g>
          <g
             transform="translate(231.8199,515.1984)"
             id="g4299">
            <path
               id="path4301"
               style="fill:#ffffff;fill-opacity:1;fill-rule:nonzero;stroke:none"
               d="m 0,0 c -1.687,-1.048 -2.208,-2.983 -2.208,-2.983 0,0 -0.305,1.249 -0.535,1.968 -0.285,0.887 -0.866,1.513 -1.596,1.891 v 0.001 c 0,0 0,0 -10e-4,0 0,0 0,0 0,0 V 0.876 c -0.73,-0.378 -1.311,-1.004 -1.596,-1.891 -0.23,-0.719 -0.535,-1.968 -0.535,-1.968 0,0 -0.521,1.935 -2.208,2.983 -0.32,0.216 -0.626,0.373 -0.869,0.48 v -1.994 c 0,-0.929 0.48,-1.822 1.35,-2.514 0.876,-0.696 2.066,-1.127 3.352,-1.216 v -0.478 -0.636 c 0,-0.26 0.16,-0.478 0.376,-0.542 0.04,-0.019 0.084,-0.029 0.13,-0.03 v 0 c 0,0 0,0 0,0 10e-4,0 10e-4,0 10e-4,0 v 0 c 0.046,10e-4 0.09,0.011 0.13,0.03 0.216,0.064 0.376,0.282 0.376,0.542 v 0.636 0.478 c 1.286,0.089 2.476,0.52 3.352,1.216 0.87,0.692 1.35,1.585 1.35,2.514 V 0.48 C 0.626,0.373 0.319,0.216 0,0" />
          </g>
        </g>
      </g>
    </g>
  </g>
</svg>
