<?xml version="1.0" encoding="UTF-8" standalone="no"?>
<svg
   xmlns:dc="http://purl.org/dc/elements/1.1/"
   xmlns:cc="http://creativecommons.org/ns#"
   xmlns:rdf="http://www.w3.org/1999/02/22-rdf-syntax-ns#"
   xmlns:svg="http://www.w3.org/2000/svg"
   xmlns="http://www.w3.org/2000/svg"
   id="svg7516"
   version="1.1"
   viewBox="0 0 8.0002947 7.9999413"
   height="7.9999413mm"
   width="8.0002947mm">
  <defs
     id="defs7510">
    <clipPath
       clipPathUnits="userSpaceOnUse"
       id="clipPath4219">
      <path
         d="M 0,0 H 595.276 V 841.89 H 0 Z"
         id="path4217" />
    </clipPath>
  </defs>
  <metadata
     id="metadata7513">
    <rdf:RDF>
      <cc:Work
         rdf:about="">
        <dc:format>image/svg+xml</dc:format>
        <dc:type
           rdf:resource="http://purl.org/dc/dcmitype/StillImage" />
        <dc:title></dc:title>
      </cc:Work>
    </rdf:RDF>
  </metadata>
  <g
     transform="translate(-44.380805,-132.73813)"
     id="layer1">
    <g
       transform="matrix(0.35277777,0,0,-0.35277777,-31.869041,356.23805)"
       id="g4213">
      <g
         clip-path="url(#clipPath4219)"
         id="g4215">
        <g
           transform="translate(227.4803,610.8661)"
           id="g4221">
          <path
             id="path4223"
             style="fill:#000000;fill-opacity:1;fill-rule:nonzero;stroke:none"
             d="m 0,0 c 6.262,0 11.339,5.076 11.339,11.339 0,6.262 -5.077,11.338 -11.339,11.338 -6.262,0 -11.339,-5.076 -11.339,-11.338 C -11.339,5.076 -6.262,0 0,0" />
        </g>
        <g
           transform="translate(227.3264,615.5219)"
           id="g4225">
          <path
             id="path4227"
             style="fill:#ffffff;fill-opacity:1;fill-rule:nonzero;stroke:none"
             d="m 0,0 c 0,0 -3.403,-0.156 -3.909,4.278 v 1.015 c 0,0 3.911,-0.682 3.909,-5.227" />
        </g>
        <g
           transform="translate(227.3264,619.2398)"
           id="g4229">
          <path
             id="path4231"
             style="fill:#ffffff;fill-opacity:1;fill-rule:nonzero;stroke:none"
             d="m 0,0 c 0,0 -3.403,-0.156 -3.909,4.278 v 1.015 c 0,0 3.911,-0.682 3.909,-5.227" />
        </g>
        <g
           transform="translate(227.3264,623.002)"
           id="g4233">
          <path
             id="path4235"
             style="fill:#ffffff;fill-opacity:1;fill-rule:nonzero;stroke:none"
             d="m 0,0 c 0,0 -3.403,-0.156 -3.909,4.278 v 1.015 c 0,0 3.911,-0.682 3.909,-5.227" />
        </g>
        <g
           transform="translate(227.4686,615.5189)"
           id="g4237">
          <path
             id="path4239"
             style="fill:#ffffff;fill-opacity:1;fill-rule:nonzero;stroke:none"
             d="M 0,0 C 0,0 3.398,-0.155 3.905,4.281 V 5.297 C 3.905,5.297 0,4.613 0,0.066" />
        </g>
        <g
           transform="translate(227.4686,619.2368)"
           id="g4241">
          <path
             id="path4243"
             style="fill:#ffffff;fill-opacity:1;fill-rule:nonzero;stroke:none"
             d="M 0,0 C 0,0 3.398,-0.155 3.905,4.281 V 5.297 C 3.905,5.297 0,4.613 0,0.066" />
        </g>
        <g
           transform="translate(227.4686,622.999)"
           id="g4245">
          <path
             id="path4247"
             style="fill:#ffffff;fill-opacity:1;fill-rule:nonzero;stroke:none"
             d="M 0,0 C 0,0 3.398,-0.155 3.905,4.281 V 5.297 C 3.905,5.297 0,4.612 0,0.066" />
        </g>
        <g
           transform="translate(227.2455,625.6898)"
           id="g4249">
          <path
             id="path4251"
             style="fill:#ffffff;fill-opacity:1;fill-rule:nonzero;stroke:none"
             d="m 0,0 c 0,0 2.807,1.931 0.529,5.77 l -0.613,0.808 c 0,0 -2.705,-2.906 0.044,-6.525" />
        </g>
      </g>
    </g>
  </g>
</svg>
