<?xml version="1.0" encoding="UTF-8" standalone="no"?>
<svg
   xmlns:dc="http://purl.org/dc/elements/1.1/"
   xmlns:cc="http://creativecommons.org/ns#"
   xmlns:rdf="http://www.w3.org/1999/02/22-rdf-syntax-ns#"
   xmlns:svg="http://www.w3.org/2000/svg"
   xmlns="http://www.w3.org/2000/svg"
   id="svg8149"
   version="1.1"
   viewBox="0 0 7.9999413 8.0002947"
   height="8.0002947mm"
   width="7.9999413mm">
  <defs
     id="defs8143">
    <clipPath
       clipPathUnits="userSpaceOnUse"
       id="clipPath4455">
      <path
         d="M 0,0 H 595.276 V 841.89 H 0 Z"
         id="path4453" />
    </clipPath>
  </defs>
  <metadata
     id="metadata8146">
    <rdf:RDF>
      <cc:Work
         rdf:about="">
        <dc:format>image/svg+xml</dc:format>
        <dc:type
           rdf:resource="http://purl.org/dc/dcmitype/StillImage" />
        <dc:title></dc:title>
      </cc:Work>
    </rdf:RDF>
  </metadata>
  <g
     transform="translate(-54.964315,-46.559373)"
     id="layer1">
    <g
       id="g6412"
       transform="translate(40.411267,-167.28246)">
      <g
         id="g6378">
        <path
           id="path4443"
           style="fill:#000000;fill-opacity:1;fill-rule:nonzero;stroke:none"
           d="m 0,0 c 0,-6.262 -5.076,-11.339 -11.339,-11.339 -6.262,0 -11.338,5.077 -11.338,11.339 0,6.262 5.076,11.339 11.338,11.339 C -5.076,11.339 0,6.262 0,0"
           transform="matrix(0.35277777,0,0,-0.35277777,22.552989,217.84198)" />
        <g
           transform="matrix(0.35277777,0,0,-0.35277777,20.526316,216.88345)"
           id="g4445">
          <path
             id="path4447"
             style="fill:#ffffff;fill-opacity:1;fill-rule:nonzero;stroke:none"
             d="M 0,0 -4.838,2.157 V 6.072 L -5.234,5.839 -5.594,6.072 -5.971,5.852 -6.35,6.072 V 4.914 h -4.837 l 0.289,-0.397 -0.289,-0.36 0.257,-0.36 -0.257,-0.395 H -6.35 V 2.157 L -11.187,0 v -7.861 l 1.335,-0.89 v -2.755 h 1.714 v 2.133 h 2.544 2.469 v -2.133 h 1.714 v 2.704 L 0,-7.861 Z" />
        </g>
      </g>
      <g
         id="g4449"
         transform="matrix(0.35277777,0,0,-0.35277777,-4.4469986,310.14198)">
        <g
           id="g4451"
           clip-path="url(#clipPath4455)">
          <g
             id="g4457"
             transform="translate(71.3248,264.7389)">
            <path
               d="m 0,0 c 0,-0.759 -2.744,-1.374 -6.128,-1.374 -3.384,0 -6.128,0.615 -6.128,1.374 M 0,-3.56 c 0,-0.759 -2.744,-1.374 -6.128,-1.374 -3.384,0 -6.128,0.615 -6.128,1.374"
               style="fill:none;stroke:#000000;stroke-width:0.5;stroke-linecap:butt;stroke-linejoin:miter;stroke-miterlimit:10;stroke-dasharray:none;stroke-opacity:1"
               id="path4459" />
          </g>
        </g>
      </g>
    </g>
  </g>
</svg>
