<?xml version="1.0" encoding="UTF-8" standalone="no"?>
<svg
   xmlns:dc="http://purl.org/dc/elements/1.1/"
   xmlns:cc="http://creativecommons.org/ns#"
   xmlns:rdf="http://www.w3.org/1999/02/22-rdf-syntax-ns#"
   xmlns:svg="http://www.w3.org/2000/svg"
   xmlns="http://www.w3.org/2000/svg"
   id="svg9996"
   version="1.1"
   viewBox="0 0 8.0002947 7.9999413"
   height="7.9999413mm"
   width="8.0002947mm">
  <defs
     id="defs9990">
    <clipPath
       clipPathUnits="userSpaceOnUse"
       id="clipPath3863">
      <path
         d="M 0,0 H 595.276 V 841.89 H 0 Z"
         id="path3861" />
    </clipPath>
  </defs>
  <metadata
     id="metadata9993">
    <rdf:RDF>
      <cc:Work
         rdf:about="">
        <dc:format>image/svg+xml</dc:format>
        <dc:type
           rdf:resource="http://purl.org/dc/dcmitype/StillImage" />
        <dc:title></dc:title>
      </cc:Work>
    </rdf:RDF>
  </metadata>
  <g
     transform="translate(-39.089139,-121.39884)"
     id="layer1">
    <g
       transform="matrix(0.35277777,0,0,-0.35277777,-37.160707,260.42507)"
       id="g3859"
       clip-path="url(#clipPath3863)">
      <g
         id="g3865"
         transform="translate(227.4803,371.4131)">
        <path
           d="m 0,0 c 6.262,0 11.339,5.076 11.339,11.339 0,6.262 -5.077,11.338 -11.339,11.338 -6.262,0 -11.339,-5.076 -11.339,-11.338 C -11.339,5.076 -6.262,0 0,0"
           style="fill:#000000;fill-opacity:1;fill-rule:nonzero;stroke:none"
           id="path3867" />
      </g>
      <g
         id="g3869"
         transform="translate(219.6442,381.0714)">
        <path
           d="M 0,0 C 0.891,0 1.613,0.722 1.613,1.613 1.613,2.503 0.891,3.225 0,3.225 -0.891,3.225 -1.613,2.503 -1.613,1.613 -1.613,0.722 -0.891,0 0,0"
           style="fill:#ffffff;fill-opacity:1;fill-rule:nonzero;stroke:none"
           id="path3871" />
      </g>
      <g
         id="g3873"
         transform="translate(227.4567,381.0714)">
        <path
           d="M 0,0 C 0.891,0 1.613,0.722 1.613,1.613 1.613,2.503 0.891,3.225 0,3.225 -0.891,3.225 -1.613,2.503 -1.613,1.613 -1.613,0.722 -0.891,0 0,0"
           style="fill:#ffffff;fill-opacity:1;fill-rule:nonzero;stroke:none"
           id="path3875" />
      </g>
      <g
         id="g3877"
         transform="translate(227.4567,377.4877)">
        <path
           d="M 0,0 C 0.891,0 1.613,0.722 1.613,1.613 1.613,2.503 0.891,3.225 0,3.225 -0.891,3.225 -1.613,2.503 -1.613,1.613 -1.613,0.722 -0.891,0 0,0"
           style="fill:#ffffff;fill-opacity:1;fill-rule:nonzero;stroke:none"
           id="path3879" />
      </g>
      <g
         id="g3881"
         transform="translate(227.4567,373.7247)">
        <path
           d="M 0,0 C 0.891,0 1.613,0.722 1.613,1.613 1.613,2.503 0.891,3.225 0,3.225 -0.891,3.225 -1.613,2.503 -1.613,1.613 -1.613,0.722 -0.891,0 0,0"
           style="fill:#ffffff;fill-opacity:1;fill-rule:nonzero;stroke:none"
           id="path3883" />
      </g>
      <g
         id="g3885"
         transform="translate(227.4567,384.8343)">
        <path
           d="M 0,0 C 0.891,0 1.613,0.722 1.613,1.613 1.613,2.503 0.891,3.225 0,3.225 -0.891,3.225 -1.613,2.503 -1.613,1.613 -1.613,0.722 -0.891,0 0,0"
           style="fill:#ffffff;fill-opacity:1;fill-rule:nonzero;stroke:none"
           id="path3887" />
      </g>
      <g
         id="g3889"
         transform="translate(227.4567,388.5972)">
        <path
           d="M 0,0 C 0.891,0 1.613,0.722 1.613,1.613 1.613,2.503 0.891,3.225 0,3.225 -0.891,3.225 -1.613,2.503 -1.613,1.613 -1.613,0.722 -0.891,0 0,0"
           style="fill:#ffffff;fill-opacity:1;fill-rule:nonzero;stroke:none"
           id="path3891" />
      </g>
      <g
         id="g3893"
         transform="translate(235.2692,381.0714)">
        <path
           d="M 0,0 C 0.891,0 1.613,0.722 1.613,1.613 1.613,2.503 0.891,3.225 0,3.225 -0.891,3.225 -1.613,2.503 -1.613,1.613 -1.613,0.722 -0.891,0 0,0"
           style="fill:#ffffff;fill-opacity:1;fill-rule:nonzero;stroke:none"
           id="path3895" />
      </g>
      <g
         id="g3897"
         transform="translate(223.5504,381.0714)">
        <path
           d="M 0,0 C 0.891,0 1.613,0.722 1.613,1.613 1.613,2.503 0.891,3.225 0,3.225 -0.891,3.225 -1.613,2.503 -1.613,1.613 -1.613,0.722 -0.891,0 0,0"
           style="fill:#ffffff;fill-opacity:1;fill-rule:nonzero;stroke:none"
           id="path3899" />
      </g>
      <g
         id="g3901"
         transform="translate(223.5504,377.4877)">
        <path
           d="M 0,0 C 0.891,0 1.613,0.722 1.613,1.613 1.613,2.503 0.891,3.225 0,3.225 -0.891,3.225 -1.613,2.503 -1.613,1.613 -1.613,0.722 -0.891,0 0,0"
           style="fill:#ffffff;fill-opacity:1;fill-rule:nonzero;stroke:none"
           id="path3903" />
      </g>
      <g
         id="g3905"
         transform="translate(223.5504,384.8343)">
        <path
           d="M 0,0 C 0.891,0 1.613,0.722 1.613,1.613 1.613,2.503 0.891,3.225 0,3.225 -0.891,3.225 -1.613,2.503 -1.613,1.613 -1.613,0.722 -0.891,0 0,0"
           style="fill:#ffffff;fill-opacity:1;fill-rule:nonzero;stroke:none"
           id="path3907" />
      </g>
      <g
         id="g3909"
         transform="translate(231.3629,381.0714)">
        <path
           d="M 0,0 C 0.891,0 1.613,0.722 1.613,1.613 1.613,2.503 0.891,3.225 0,3.225 -0.891,3.225 -1.613,2.503 -1.613,1.613 -1.613,0.722 -0.891,0 0,0"
           style="fill:#ffffff;fill-opacity:1;fill-rule:nonzero;stroke:none"
           id="path3911" />
      </g>
      <g
         id="g3913"
         transform="translate(231.3629,377.4877)">
        <path
           d="M 0,0 C 0.891,0 1.613,0.722 1.613,1.613 1.613,2.503 0.891,3.225 0,3.225 -0.891,3.225 -1.613,2.503 -1.613,1.613 -1.613,0.722 -0.891,0 0,0"
           style="fill:#ffffff;fill-opacity:1;fill-rule:nonzero;stroke:none"
           id="path3915" />
      </g>
      <g
         id="g3917"
         transform="translate(231.3629,384.8343)">
        <path
           d="M 0,0 C 0.891,0 1.613,0.722 1.613,1.613 1.613,2.503 0.891,3.225 0,3.225 -0.891,3.225 -1.613,2.503 -1.613,1.613 -1.613,0.722 -0.891,0 0,0"
           style="fill:#ffffff;fill-opacity:1;fill-rule:nonzero;stroke:none"
           id="path3919" />
      </g>
    </g>
  </g>
</svg>
